<svg xmlns="http://www.w3.org/2000/svg" width="4800" height="980" viewBox="0 0 4800 980" role="graphics-document document"><defs><marker id="arrow" markerWidth="10" markerHeight="10" refX="9" refY="3" orient="auto"><path d="M0,0 L0,6 L9,3 z" fill="#94a3b8"/></marker><filter id="shadow"><feDropShadow dx="7" dy="8" stdDeviation="3" flood-color="#94a3b8" flood-opacity="0.22"/></filter></defs><rect width="100%" height="100%" fill="#ffffff"/><rect x="1960" y="35" width="880" height="125" rx="0" fill="#0f172a" stroke="#0f172a" stroke-width="3" filter="url(#shadow)"/><text x="2400.0" y="109.74" text-anchor="middle" font-family="Segoe UI, Arial, sans-serif" font-size="34" font-weight="700" fill="#c7d2fe">Graphic Designer Role - How to Use Each Tab</text><rect x="2150" y="200" width="500" height="80" rx="40" fill="#0e7490" stroke="#ffffff" stroke-width="3" filter="url(#shadow)"/><text x="2400.0" y="250.07999999999998" text-anchor="middle" font-family="Segoe UI, Arial, sans-serif" font-size="28" font-weight="500" fill="#ffffff">Sign in as Graphic Designer</text><path d="M2400 280 L2400 330.0 L530.0 330.0 L530.0 380" fill="none" stroke="#94a3b8" stroke-width="3" marker-end="url(#arrow)"/><rect x="80.0" y="380" width="900.0" height="455" rx="16" fill="#dbeafe" fill-opacity="0.52" stroke="#1e3a8a" stroke-width="3"/><text x="530.0" y="418" text-anchor="middle" font-family="Segoe UI, Arial, sans-serif" font-size="28" font-weight="700" fill="#1e3a8a">Dashboard</text><rect x="110.0" y="440.0" width="840.0" height="176.0" rx="4" fill="#f1f5f9" stroke="#334155" stroke-width="3" filter="url(#shadow)"/><text x="530.0" y="535.56" text-anchor="middle" font-family="Segoe UI, Arial, sans-serif" font-size="21" font-weight="500" fill="#334155">Review marketing and completeness counts</text><rect x="110.0" y="634.0" width="840.0" height="176.0" rx="4" fill="#f1f5f9" stroke="#334155" stroke-width="3" filter="url(#shadow)"/><text x="530.0" y="729.56" text-anchor="middle" font-family="Segoe UI, Arial, sans-serif" font-size="21" font-weight="500" fill="#334155">Export the dashboard report</text><path d="M2400 280 L2400 330.0 L1465.0 330.0 L1465.0 380" fill="none" stroke="#94a3b8" stroke-width="3" marker-end="url(#arrow)"/><rect x="1015.0" y="380" width="900.0" height="455" rx="16" fill="#fce7f3" fill-opacity="0.52" stroke="#831843" stroke-width="3"/><text x="1465.0" y="418" text-anchor="middle" font-family="Segoe UI, Arial, sans-serif" font-size="28" font-weight="700" fill="#831843">Marketing</text><rect x="1045.0" y="440.0" width="840.0" height="176.0" rx="4" fill="#f1f5f9" stroke="#334155" stroke-width="3" filter="url(#shadow)"/><text x="1465.0" y="535.56" text-anchor="middle" font-family="Segoe UI, Arial, sans-serif" font-size="21" font-weight="500" fill="#334155">Upload brochures, fliers, roll-ups, posters and backdrops</text><rect x="1045.0" y="634.0" width="840.0" height="176.0" rx="4" fill="#f1f5f9" stroke="#334155" stroke-width="3" filter="url(#shadow)"/><text x="1465.0" y="729.56" text-anchor="middle" font-family="Segoe UI, Arial, sans-serif" font-size="21" font-weight="500" fill="#334155">Maintain events, testimonies and links</text><path d="M2400 280 L2400 330.0 L2400.0 330.0 L2400.0 380" fill="none" stroke="#94a3b8" stroke-width="3" marker-end="url(#arrow)"/><rect x="1950.0" y="380" width="900.0" height="455" rx="16" fill="#d1fae5" fill-opacity="0.52" stroke="#065f46" stroke-width="3"/><text x="2400.0" y="418" text-anchor="middle" font-family="Segoe UI, Arial, sans-serif" font-size="28" font-weight="700" fill="#065f46">Product Media</text><rect x="1980.0" y="440.0" width="840.0" height="176.0" rx="4" fill="#f1f5f9" stroke="#334155" stroke-width="3" filter="url(#shadow)"/><text x="2400.0" y="535.56" text-anchor="middle" font-family="Segoe UI, Arial, sans-serif" font-size="21" font-weight="500" fill="#334155">Edit product images and main image</text><rect x="1980.0" y="634.0" width="840.0" height="176.0" rx="4" fill="#f1f5f9" stroke="#334155" stroke-width="3" filter="url(#shadow)"/><text x="2400.0" y="729.56" text-anchor="middle" font-family="Segoe UI, Arial, sans-serif" font-size="21" font-weight="500" fill="#334155">Review descriptions and certificates</text><path d="M2400 280 L2400 330.0 L3335.0 330.0 L3335.0 380" fill="none" stroke="#94a3b8" stroke-width="3" marker-end="url(#arrow)"/><rect x="2885.0" y="380" width="900.0" height="455" rx="16" fill="#ede9fe" fill-opacity="0.52" stroke="#5b21b6" stroke-width="3"/><text x="3335.0" y="418" text-anchor="middle" font-family="Segoe UI, Arial, sans-serif" font-size="28" font-weight="700" fill="#5b21b6">Packages &amp; Branding</text><rect x="2915.0" y="440.0" width="840.0" height="176.0" rx="4" fill="#f1f5f9" stroke="#334155" stroke-width="3" filter="url(#shadow)"/><text x="3335.0" y="535.56" text-anchor="middle" font-family="Segoe UI, Arial, sans-serif" font-size="21" font-weight="500" fill="#334155">Update package images and layout data</text><rect x="2915.0" y="634.0" width="840.0" height="176.0" rx="4" fill="#f1f5f9" stroke="#334155" stroke-width="3" filter="url(#shadow)"/><text x="3335.0" y="729.56" text-anchor="middle" font-family="Segoe UI, Arial, sans-serif" font-size="21" font-weight="500" fill="#334155">Maintain company logos and branding</text><path d="M2400 280 L2400 330.0 L4270.0 330.0 L4270.0 380" fill="none" stroke="#94a3b8" stroke-width="3" marker-end="url(#arrow)"/><rect x="3820.0" y="380" width="900.0" height="455" rx="16" fill="#fef3c7" fill-opacity="0.52" stroke="#78350f" stroke-width="3"/><text x="4270.0" y="418" text-anchor="middle" font-family="Segoe UI, Arial, sans-serif" font-size="28" font-weight="700" fill="#78350f">Public Catalog</text><rect x="3850.0" y="440.0" width="840.0" height="176.0" rx="4" fill="#f1f5f9" stroke="#334155" stroke-width="3" filter="url(#shadow)"/><text x="4270.0" y="535.56" text-anchor="middle" font-family="Segoe UI, Arial, sans-serif" font-size="21" font-weight="500" fill="#334155">Inspect responsive public presentation</text><rect x="3850.0" y="634.0" width="840.0" height="176.0" rx="4" fill="#f1f5f9" stroke="#334155" stroke-width="3" filter="url(#shadow)"/><text x="4270.0" y="729.56" text-anchor="middle" font-family="Segoe UI, Arial, sans-serif" font-size="21" font-weight="500" fill="#334155">Verify assets on product detail pages</text><rect x="1250" y="875" width="2300" height="70" rx="6" fill="#fee2e2" stroke="#7f1d1d" stroke-width="3" filter="url(#shadow)"/><text x="2400.0" y="917.92" text-anchor="middle" font-family="Segoe UI, Arial, sans-serif" font-size="22" font-weight="500" fill="#7f1d1d">Not available: User Management and all Super-Admin-only delete actions.</text></svg>